<?xml version="1.0" standalone="no"?>
<!DOCTYPE svg PUBLIC "-//W3C//DTD SVG 20010904//EN"
 "http://www.w3.org/TR/2001/REC-SVG-20010904/DTD/svg10.dtd">
<svg version="1.0" xmlns="http://www.w3.org/2000/svg"
 width="512.000000pt" height="512.000000pt" viewBox="0 0 512.000000 512.000000"
 preserveAspectRatio="xMidYMid meet">
<metadata>
Created by potrace 1.14, written by Peter Selinger 2001-2017
</metadata>
<g transform="translate(0.000000,512.000000) scale(0.100000,-0.100000)"
fill="#000000" stroke="none">
<path d="M1496 3425 c-188 -39 -342 -121 -471 -250 -191 -191 -287 -464 -256
-724 52 -424 369 -740 795 -792 315 -39 606 94 822 376 l56 74 -68 120 c-38
67 -71 121 -74 121 -3 0 -27 -35 -55 -78 -72 -112 -213 -249 -301 -295 -102
-53 -186 -70 -314 -64 -125 5 -203 29 -306 93 -182 112 -303 327 -304 537 0
88 27 204 68 287 52 107 178 234 282 283 120 57 186 70 325 64 140 -5 201 -24
307 -94 139 -91 246 -235 453 -608 221 -401 341 -558 515 -674 501 -335 1183
-78 1350 509 28 96 37 273 21 376 -62 381 -365 681 -751 743 -202 33 -437 -15
-600 -121 -108 -71 -310 -277 -310 -317 0 -7 8 -25 19 -39 10 -15 41 -67 69
-115 l50 -88 53 78 c29 43 91 116 138 163 137 137 262 190 446 190 115 0 198
-20 295 -70 149 -78 260 -209 314 -370 24 -73 28 -101 28 -195 0 -91 -4 -124
-26 -192 -52 -161 -171 -300 -321 -374 -105 -51 -180 -69 -290 -69 -187 0
-292 46 -436 190 -114 114 -182 213 -349 515 -67 121 -156 271 -197 333 -166
248 -344 391 -568 457 -113 33 -301 43 -409 20z"/>
</g>
</svg>
